<svg width="25" height="25" viewBox="0 0 25 25" fill="none" xmlns="http://www.w3.org/2000/svg">
<g clip-path="url(#clip0)">
<path d="M16.6955 2.86058C12.8817 -0.953202 6.67451 -0.953202 2.86072 2.86058C-0.952232 6.67519 -0.952232 12.8816 2.86072 16.6962C6.257 20.0916 11.5465 20.4554 15.3578 17.804C15.438 18.1835 15.6216 18.5456 15.9167 18.8408L21.4708 24.3949C22.2802 25.2026 23.5881 25.2026 24.3933 24.3949C25.2019 23.5863 25.2019 22.2784 24.3933 21.4723L18.8393 15.9166C18.5458 15.6239 18.1828 15.4395 17.8033 15.3593C20.4564 11.5472 20.0926 6.25851 16.6955 2.86058ZM14.942 14.9427C12.0947 17.79 7.46074 17.79 4.61425 14.9427C1.76859 12.0953 1.76859 7.46226 4.61425 4.61494C7.46074 1.76845 12.0947 1.76845 14.942 4.61494C17.7893 7.46226 17.7893 12.0953 14.942 14.9427Z" fill="#5063F0"/>
</g>
<defs>
<clipPath id="clip0">
<rect width="25" height="25" fill="white"/>
</clipPath>
</defs>
</svg>
